# Blender v2.75 (sub 0) OBJ File: ''
# www.blender.org
mtllib spam_ch.mtl
o spam_ch
v 0.017838 0.050894 0.080898
v -0.034058 0.013008 0.081040
v -0.022019 -0.027608 0.080895
v 0.045010 0.021526 0.082063
v -0.037864 0.020902 0.006005
v -0.046919 -0.012950 0.005858
v -0.014013 0.039139 0.005871
v -0.048042 0.001802 0.015783
v -0.046967 0.007828 0.006931
v -0.045007 0.013705 0.006826
v 0.033340 0.054732 0.007092
v 0.042502 0.045010 0.005871
v -0.001894 0.046967 0.005871
v 0.039139 0.050880 0.006701
v 0.035240 0.046749 0.077086
v 0.042053 0.040220 0.071502
v 0.048932 0.032330 0.005870
v 0.049367 0.019569 0.007828
v 0.040660 0.005982 0.005886
v 0.039030 0.000165 0.007852
v 0.049993 0.016944 0.009801
v 0.044701 0.011922 0.078659
v 0.021425 -0.019654 0.013923
v 0.039083 0.005896 0.077002
v 0.045056 0.016036 0.081678
v -0.010034 -0.026621 0.080434
v -0.030333 -0.019569 0.081021
v -0.001707 -0.024733 0.074885
v -0.009639 -0.029497 0.075071
v -0.015818 -0.034741 0.009969
v -0.018873 -0.032415 0.065941
v -0.027039 -0.033264 0.005868
v -0.028005 -0.027848 0.074364
v -0.032165 -0.025351 0.069457
v -0.028223 -0.029153 0.066525
v -0.037193 -0.027382 0.006132
v 0.001957 -0.027832 0.005871
v 0.001957 -0.029354 0.006395
v -0.038672 0.013322 0.073385
v 0.027397 0.056751 0.007230
v 0.015649 0.058708 0.007828
v 0.027750 0.052826 0.076291
v 0.032984 0.048932 0.077030
v 0.046812 0.038083 0.005869
v 0.050658 0.027465 0.007856
v 0.047502 0.032340 0.068493
v 0.049011 0.027520 0.074290
v 0.046997 0.024223 0.081439
v 0.050951 0.021502 0.012538
v 0.048962 0.020536 0.073658
v 0.049360 0.023959 0.072893
v 0.007438 0.056772 0.009632
v -0.040202 -0.008049 0.080927
v -0.038700 -0.010477 0.081092
v -0.041162 0.004410 0.081058
v -0.031208 -0.021640 0.080672
v -0.003580 -0.024904 0.078408
v -0.007690 -0.027515 0.078165
v -0.012030 -0.031118 0.070432
v -0.022994 -0.031614 0.065695
v -0.030732 -0.024987 0.077307
v -0.014812 -0.034540 0.008033
v 0.046216 0.011742 0.007828
v 0.033268 -0.002981 0.005871
v 0.018360 0.058720 0.007855
v 0.024462 0.054156 0.068982
v 0.031411 0.046823 0.080855
v 0.023483 0.050880 0.080882
v 0.043863 0.030129 0.081760
v 0.019546 0.054002 0.078271
v 0.045515 0.035545 0.073393
v 0.047405 0.027021 0.080427
v 0.047935 0.024313 0.080298
v -0.034472 0.016990 0.072407
v -0.043144 -0.004860 0.079763
v -0.039137 -0.011923 0.080253
v -0.041672 0.009859 0.076041
v -0.018589 -0.029441 0.080232
v -0.041163 0.006039 0.080856
v -0.043259 0.000279 0.080591
v 0.035518 0.004266 0.079109
v -0.014848 -0.031292 0.074057
v -0.026451 -0.030077 0.068458
v -0.025861 -0.026951 0.080157
v -0.031750 -0.023372 0.078456
v -0.024761 -0.028788 0.078288
v -0.007053 0.037182 0.078278
v -0.035845 0.015050 0.078205
v -0.034642 0.014423 0.080382
v 0.004010 0.046683 0.074872
v 0.022014 0.054051 0.078236
v 0.023017 0.052917 0.080256
v 0.026914 0.052657 0.078148
v 0.045514 0.034542 0.076187
v 0.044525 0.033133 0.080339
v 0.041087 0.040171 0.076282
v 0.043053 0.033268 0.081231
v 0.032662 0.047110 0.080204
v 0.036692 0.044425 0.078278
v 0.044758 0.012983 0.080600
v 0.046590 0.014600 0.075709
v 0.050934 0.023464 0.009781
v 0.015524 0.052801 0.078053
v 0.009174 0.050629 0.073379
v -0.035120 -0.020891 0.076264
v -0.038555 -0.015787 0.078127
v -0.041976 -0.009558 0.078449
v -0.043093 -0.009553 0.076298
v -0.044408 -0.005690 0.076294
v -0.044809 -0.001930 0.078069
v -0.044818 0.001668 0.078061
v -0.043089 -0.011468 0.070092
v -0.045946 -0.001389 0.072348
v -0.021364 -0.029326 0.079808
v -0.020231 -0.030285 0.078288
v -0.013146 -0.029701 0.078746
v -0.020638 -0.031666 0.071825
v -0.040968 -0.013956 0.074537
v -0.037565 -0.018485 0.074607
v -0.045082 -0.006127 0.072107
v 0.018866 0.052813 0.080056
v 0.013836 0.050869 0.080302
v 0.010180 0.049909 0.078287
v 0.028156 0.050556 0.080414
v 0.048772 0.021918 0.078227
v 0.047278 0.019325 0.080850
v 0.047030 0.016849 0.079984
v -0.043242 0.006144 0.078430
v -0.044187 0.005527 0.075227
v -0.046123 0.000997 0.068125
v -0.009785 -0.027397 0.079609
v -0.015656 -0.030436 0.078278
v -0.024842 -0.029671 0.074693
v 0.047271 0.030073 0.078241
v 0.047518 0.031387 0.074519
v -0.039127 0.009816 0.080439
v -0.041084 0.009688 0.078270
vn -0.789400 0.436800 0.431300
vn -0.897700 0.293800 -0.328500
vn -0.699800 0.010100 -0.714300
vn -0.316000 -0.017500 0.948600
vn 0.603000 -0.313700 0.733500
vn 0.120600 0.086600 0.988900
vn 0.578600 0.591200 0.561800
vn -0.805500 0.459000 -0.374700
vn -0.608500 0.583700 -0.537500
vn -0.424800 0.638700 -0.641500
vn -0.179500 0.820700 -0.542500
vn 0.586400 0.581300 -0.564200
vn -0.603100 0.559500 -0.568600
vn 0.564700 0.573300 -0.593600
vn 0.439100 0.744700 0.502600
vn 0.572700 0.729400 0.374100
vn 0.713600 0.488500 -0.502100
vn 0.594400 -0.568000 -0.569200
vn 0.711800 -0.468600 -0.523200
vn 0.780100 -0.367700 -0.506100
vn 0.624300 -0.558800 0.545900
vn 0.491900 -0.650800 -0.578400
vn 0.451400 -0.690300 0.565400
vn 0.135400 -0.689300 0.711700
vn 0.716300 -0.056100 0.695500
vn -0.122200 -0.776400 0.618300
vn 0.512800 -0.619000 0.594800
vn -0.280900 0.299500 0.911800
vn 0.234300 -0.834400 0.498900
vn 0.007500 -0.854000 0.520200
vn 0.390700 -0.902000 -0.183800
vn -0.101500 -0.837100 0.537600
vn -0.453300 -0.485700 -0.747400
vn -0.801800 -0.457200 0.384800
vn -0.828500 -0.450600 0.332500
vn -0.679300 -0.687900 -0.255500
vn 0.409800 -0.644900 -0.645100
vn 0.573900 -0.581800 -0.576400
vn 0.604200 -0.670200 -0.431100
vn 0.248200 0.917000 -0.312200
vn 0.600700 0.617300 0.508100
vn -0.357100 0.599600 -0.716200
vn 0.352000 0.848600 0.395000
vn 0.750700 0.048900 -0.658800
vn 0.575200 0.276500 -0.769900
vn 0.789600 0.506600 -0.346200
vn 0.629800 0.596700 0.497300
vn 0.765000 0.099000 0.636300
vn 0.913500 -0.223500 0.339900
vn 0.917000 0.092900 0.387900
vn 0.680800 -0.714700 0.160400
vn 0.737800 -0.674400 0.027200
vn -0.111000 0.358900 -0.926700
vn -0.183800 0.750400 -0.634900
vn -0.579000 0.725000 0.372900
vn -0.669100 0.145200 0.728800
vn -0.732100 -0.212600 0.647200
vn 0.666400 -0.671800 0.323400
vn -0.556200 -0.683700 0.472500
vn -0.559400 -0.455500 -0.692500
vn -0.523100 -0.612500 0.592600
vn -0.670300 -0.589200 0.451300
vn 0.579300 -0.576400 -0.576300
vn 0.577400 -0.575800 -0.578800
vn -0.602600 0.585300 0.542500
vn -0.438400 -0.437200 0.785300
vn 0.398300 -0.046200 0.916100
vn -0.220900 0.890200 0.398400
vn 0.382200 0.524100 -0.761100
vn -0.365200 0.768500 0.525300
vn 0.196700 0.690700 0.695900
vn 0.545500 0.640100 0.541000
vn 0.938200 0.332000 0.098000
vn 0.685700 -0.086300 0.722800
vn -0.684800 0.629700 0.366700
vn -0.821800 0.511500 0.251000
vn 0.115500 -0.197000 0.973600
vn -0.939400 -0.119000 0.321400
vn -0.628200 -0.564300 0.535600
vn -0.100800 -0.842900 0.528500
vn -0.676000 -0.291900 0.676700
vn 0.395900 -0.571300 0.718900
vn 0.633900 -0.547900 0.545900
vn 0.658400 -0.734600 -0.163900
vn -0.676000 -0.587100 0.445500
vn 0.388200 -0.901500 -0.191100
vn -0.288600 -0.661100 0.692600
vn -0.565500 0.298500 0.768800
vn -0.576500 0.575900 0.579700
vn -0.390700 0.898000 0.202200
vn 0.152200 0.866000 0.476300
vn 0.562900 0.337100 0.754600
vn 0.684000 0.235000 0.690600
vn 0.889100 0.155400 0.430600
vn 0.599600 0.798900 -0.047400
vn 0.794700 -0.366100 0.484100
vn 0.704100 -0.597200 0.384200
vn 0.840900 -0.481900 0.246100
vn -0.747200 0.659300 0.083500
vn 0.004600 0.616500 0.787300
vn -0.497000 0.660200 0.563200
vn -0.663100 -0.664800 0.343900
vn -0.533400 -0.579700 0.616000
vn -0.909300 -0.316100 0.270700
vn -0.589100 -0.366400 0.720200
vn -0.969800 -0.179700 -0.164900
vn -0.607100 -0.090700 0.789500
vn -0.552400 0.017400 0.833400
vn -0.451400 -0.252700 0.855800
vn -0.548200 0.345300 0.761700
vn -0.608000 -0.612400 0.505200
vn -0.579400 -0.635300 0.510600
vn -0.470700 -0.367800 0.802000
vn -0.049400 -0.932900 0.356700
vn -0.740200 -0.455500 0.494600
vn -0.541400 -0.780700 0.312000
vn -0.883400 0.230300 0.408100
vn -0.033800 0.914700 0.402800
vn -0.232000 0.799300 0.554400
vn 0.666700 0.726200 0.167400
vn -0.729400 0.392200 0.560500
vn 0.553200 0.568500 0.608900
vn 0.789700 0.532100 0.305200
vn 0.811600 0.257100 0.524600
vn 0.548500 -0.251300 0.797500
vn -0.668400 0.224400 0.709100
vn -0.597300 0.774300 0.209000
vn 0.077300 -0.659200 0.748000
vn 0.452600 -0.887800 0.084000
vn -0.157400 -0.744000 0.649400
vn 0.336800 -0.654900 0.676500
vn -0.217000 0.643400 0.734100
vn -0.786900 0.268000 0.555800
vn 0.872500 0.018700 0.488300
vn 0.698500 0.705400 0.120500
vn -0.618700 0.335900 0.710200
vn -0.507700 0.778400 0.369300
usemtl None
s 1
f 113//1 8//2 6//3
f 67//4 69//5 97//6 98//7
f 8//2 9//8 6//3
f 10//9 5//10 6//3
f 6//3 9//8 10//9
f 11//11 12//12 13//13
f 14//14 12//12 11//11
f 14//14 15//15 16//16
f 17//17 18//18 19//19
f 20//20 22//21 23//22
f 22//21 24//23 23//22
f 25//24 4//25 3//26
f 25//24 3//26 26//27
f 27//28 3//26 4//25
f 24//23 28//29 23//22
f 29//30 23//22 28//29
f 30//31 31//32 32//33
f 33//34 34//35 35//36
f 37//37 38//38 32//33
f 62//39 32//33 38//38
f 11//11 40//40 42//41
f 40//40 13//13 41//42
f 40//40 11//11 13//13
f 11//11 42//41 14//14
f 43//43 15//15 14//14
f 44//44 12//12 14//14
f 45//45 46//46 47//47
f 25//24 48//48 4//25
f 51//49 49//50 45//45
f 49//50 50//51 21//52
f 13//13 7//53 52//54
f 5//10 52//54 7//53
f 5//10 10//9 39//55
f 55//56 54//57 4//25
f 27//28 4//25 54//57
f 59//58 31//32 30//31
f 62//39 59//58 30//31
f 31//32 60//59 32//33
f 35//36 36//60 32//33
f 61//61 34//35 33//34
f 36//60 112//62 6//3
f 35//36 34//35 36//60
f 30//31 32//33 62//39
f 59//58 62//39 38//38
f 19//19 63//63 20//20
f 63//63 19//19 18//18
f 38//38 37//37 64//64
f 19//19 20//20 64//64
f 64//64 20//20 23//22
f 64//64 23//22 38//38
f 59//58 38//38 23//22
f 122//65 2//66 1//67
f 66//68 40//40 65//69
f 66//68 42//41 40//40
f 42//41 66//68 91//70
f 67//4 68//71 69//5
f 43//43 14//14 42//41
f 96//72 16//16 15//15
f 69//5 4//25 48//48
f 72//73 48//48 73//74
f 50//51 49//50 51//49
f 21//52 20//20 63//63
f 21//52 63//63 18//18
f 45//45 21//52 18//18
f 45//45 18//18 17//17
f 46//46 17//17 44//44
f 46//46 45//45 17//17
f 52//54 5//10 74//75
f 74//75 90//76 52//54
f 53//77 75//78 76//79
f 78//80 26//27 3//26
f 2//66 55//56 4//25
f 1//67 2//66 4//25
f 27//28 56//81 3//26
f 57//82 24//23 81//83
f 28//29 24//23 57//82
f 59//58 82//84 31//32
f 83//85 35//36 32//33
f 60//59 117//86 133//87 83//85
f 89//88 87//89 88//90
f 2//66 122//65 89//88
f 90//76 88//90 87//89
f 65//69 40//40 41//42
f 66//68 65//69 91//70
f 1//67 68//71 92//91
f 1//67 69//5 68//71
f 69//5 1//67 4//25
f 124//92 68//71 67//4
f 96//72 95//93 94//94
f 44//44 71//95 46//46
f 44//44 14//14 71//95
f 24//23 100//96 81//83
f 72//73 95//93 69//5
f 69//5 48//48 72//73
f 95//93 97//6 69//5
f 101//97 20//20 21//52
f 20//20 101//97 22//21
f 102//98 45//45 49//50
f 52//54 103//99 70//100
f 41//42 52//54 70//100
f 74//75 5//10 39//55
f 88//90 74//75 39//55
f 90//76 74//75 88//90
f 90//76 104//101 52//54
f 54//57 53//77 76//79
f 85//102 106//103 105//104
f 107//105 108//106 106//103
f 107//105 106//103 76//79
f 108//106 75//78 109//107
f 108//106 107//105 75//78
f 109//107 75//78 110//108
f 110//108 80//109 111//110
f 80//109 110//108 75//78
f 114//111 78//80 3//26
f 115//112 78//80 114//111
f 55//56 80//109 53//77
f 55//56 53//77 54//57
f 56//81 84//113 3//26
f 54//57 56//81 27//28
f 76//79 56//81 54//57
f 117//86 60//59 31//32
f 76//79 106//103 56//81
f 85//102 61//61 84//113
f 84//113 61//61 86//114
f 119//115 34//35 105//104
f 105//104 61//61 85//102
f 118//116 112//62 36//60
f 119//115 36//60 34//35
f 119//115 118//116 36//60
f 112//62 108//106 120//117
f 121//118 1//67 92//91
f 122//65 87//89 89//88
f 87//89 122//65 123//119
f 70//100 91//70 41//42
f 65//69 41//42 91//70
f 92//91 91//70 70//100
f 70//100 121//118 92//91
f 91//70 92//91 93//120
f 42//41 91//70 93//120
f 124//92 93//120 92//91
f 92//91 68//71 124//92
f 98//7 124//92 67//4
f 77//121 39//55 10//9
f 71//95 96//72 94//94
f 95//93 96//72 99//122
f 98//7 97//6 95//93
f 5//10 7//53 19//19 6//3
f 71//95 16//16 96//72
f 14//14 16//16 71//95
f 26//27 57//82 81//83
f 81//83 100//96 26//27
f 100//96 24//23 22//21
f 101//97 21//52 50//51
f 125//123 126//124 127//125
f 125//123 127//125 50//51
f 102//98 21//52 45//45
f 49//50 21//52 102//98
f 52//54 104//101 103//99
f 111//110 128//126 129//127
f 107//105 76//79 75//78
f 118//116 106//103 108//106
f 10//9 129//127 77//121
f 131//128 57//82 26//27
f 58//129 57//82 131//128
f 116//130 26//27 78//80
f 84//113 114//111 3//26
f 117//86 82//84 132//131
f 132//131 115//112 117//86
f 132//131 78//80 115//112
f 116//130 78//80 132//131
f 55//56 79//132 80//109
f 53//77 80//109 75//78
f 58//129 131//128 116//130
f 82//84 29//30 116//130
f 132//131 82//84 116//130
f 59//58 29//30 82//84
f 133//87 117//86 115//112
f 83//85 33//34 35//36
f 56//81 85//102 84//113
f 106//103 85//102 56//81
f 105//104 34//35 61//61
f 112//62 120//117 6//3
f 6//3 120//117 113//1
f 121//118 122//65 1//67
f 98//7 43//43 124//92
f 15//15 43//43 98//7
f 100//96 25//24 26//27
f 127//125 25//24 100//96
f 126//124 25//24 127//125
f 101//97 50//51 127//125
f 22//21 101//97 127//125
f 47//47 51//49 45//45
f 51//49 125//123 50//51
f 103//99 104//101 123//119
f 122//65 103//99 123//119
f 90//76 87//89 123//119
f 123//119 104//101 90//76
f 88//90 39//55 77//121
f 118//116 108//106 112//62
f 113//1 110//108 111//110
f 19//19 32//33 36//60 6//3
f 130//133 8//2 113//1
f 71//95 135//134 46//46
f 33//34 86//114 61//61
f 116//130 131//128 26//27
f 29//30 59//58 23//22
f 28//29 57//82 58//129
f 58//129 29//30 28//29
f 29//30 58//129 116//130
f 86//114 114//111 84//113
f 93//120 43//43 42//41
f 93//120 124//92 43//43
f 99//122 96//72 15//15
f 135//134 47//47 46//46
f 135//134 134//135 47//47
f 25//24 126//124 48//48
f 126//124 125//123 73//74
f 73//74 48//48 126//124
f 134//135 95//93 72//73
f 125//123 51//49 47//47
f 103//99 121//118 70//100
f 121//118 103//99 122//65
f 130//133 9//8 8//2
f 128//126 77//121 129//127
f 86//114 133//87 115//112
f 86//114 115//112 114//111
f 106//103 119//115 105//104
f 120//117 108//106 109//107
f 99//122 15//15 98//7
f 95//93 99//122 98//7
f 135//134 71//95 94//94
f 100//96 22//21 127//125
f 94//94 95//93 134//135
f 72//73 47//47 134//135
f 72//73 125//123 47//47
f 125//123 72//73 73//74
f 83//85 32//33 60//59
f 88//90 136//136 89//88
f 129//127 10//9 9//8
f 129//127 9//8 130//133
f 137//137 128//126 79//132
f 79//132 128//126 80//109
f 80//109 128//126 111//110
f 136//136 137//137 79//132
f 137//137 77//121 128//126
f 137//137 88//90 77//121
f 82//84 117//86 31//32
f 133//87 33//34 83//85
f 118//116 119//115 106//103
f 120//117 109//107 113//1
f 110//108 113//1 109//107
f 94//94 134//135 135//134
f 88//90 137//137 136//136
f 111//110 130//133 113//1
f 129//127 130//133 111//110
f 79//132 55//56 136//136
f 136//136 55//56 2//66
f 136//136 2//66 89//88
f 86//114 33//34 133//87
f 44//44 17//17 19//19
f 13//13 12//12 19//19
f 19//19 7//53 13//13
f 19//19 37//37 32//33
f 19//19 64//64 37//37
f 12//12 44//44 19//19
f 13//13 52//54 41//42
